<?xml version="1.0" encoding="utf-8"?>
<!-- Generator: Adobe Illustrator 15.0.0, SVG Export Plug-In . SVG Version: 6.00 Build 0)  -->
<!DOCTYPE svg PUBLIC "-//W3C//DTD SVG 1.1//EN" "http://www.w3.org/Graphics/SVG/1.1/DTD/svg11.dtd">
<svg version="1.1" xmlns="http://www.w3.org/2000/svg" xmlns:xlink="http://www.w3.org/1999/xlink" x="0px" y="0px"
	 width="841.89px" height="595.28px" viewBox="0 0 841.89 595.28" enable-background="new 0 0 841.89 595.28" xml:space="preserve">
<g id="Calque_1">
	<rect x="29.541" y="30.297" fill="#C49A6C" stroke="#000000" stroke-miterlimit="10" width="779.73" height="450"/>
</g>
<g id="Calque_2">
	<g>
		<path fill-rule="evenodd" clip-rule="evenodd" fill="#FFFFFF" d="M461.781,147.271c-1.1-4.278-4.062-8.484-2.599-14.106
			c3.622-0.087,5.122,3.17,7.796,4.826c9.4,5.82,21.567,7.308,35.638,8.539c-0.276,10.06-1.358,23.088-0.742,37.124
			c0.438,9.949,1.625,21.725,6.683,23.758c2.151,0.866,8.791,1.126,10.765-1.114c-0.746-1.975-4.462-0.982-4.825-3.34
			c1.07-2.767,4.582-3.09,6.682-4.827c5.429,1.997,10.623,4.227,15.963,6.311c-1.006-3.337-6.132-6.118-6.682-10.394
			c-1.472-11.447,5.182-26.296,8.166-34.525c4.857,0.464,8.781,1.861,12.994,2.97c-0.537,1.87-2.578,2.527-3.713,3.712
			c-14.481,15.135-3.282,50.687,23.389,44.176c8.55-2.087,21.874-11.134,22.272-21.531c0.146-3.788-1.985-8.457-2.969-12.251
			c-1.071-4.13-2.128-7.92-3.343-11.879c1.997-2.46,5.058-3.853,9.282-4.084c1.58,0.523,1.022,3.186,1.484,4.826
			c5.863-1.819,9.379-9.174,12.622-14.849c11.789-2.511,33.728-8.95,43.434,0c10.208-9.715,18.311-21.536,25.615-34.154
			c9.513-3.604,19.371-6.862,32.668-6.682c0.664,1.316,0.079,3.881,0.743,5.197c-16.591,1.97-24.073,13.05-33.782,21.902
			c22.042,1.137,44.864,1.297,67.192,0.372c0,2.227,0,4.455,0,6.682c-10.165-0.229-19.445-1.344-30.069-1.114
			c-2.533,10.327-4.107,29.975-3.341,43.805c0.313,5.648,1.287,11.735,5.567,13.735c-0.773,2.195-1.208,4.731-1.855,7.054
			c-6.152-0.089-11.412,0.714-16.705,1.485c0.602,3.111,1.896,5.528,2.227,8.909c-2.236,0.011-3.822-0.632-6.311-0.371
			c-3.043-12.241-10.57-24.558-10.022-39.351c0.405-10.986,4.391-22.866,1.484-34.896c-4.771,0.001-9.52-1.46-13.736,0
			c-2.448,0.849-6.68,5.739-8.909,7.796c-8.867,8.183-16.778,16.304-30.812,18.933c-0.695-1.78-1.319-3.631-1.856-5.569
			c4.094-0.979,7.413-2.733,10.395-4.826c-12.95-5.139-27.872,1.45-32.297,10.765c2.955,5.567,10.069,6.984,15.963,8.91
			c12.064,3.942,25.448,7.245,38.237,10.765c6.226,1.714,12.96,3.079,17.076,7.425c-4.501,2.928-10.05,4.005-14.107,8.539
			c-1.156,1.292-1.623,3.513-2.969,4.826c-2.648,2.582-8.517,3.789-12.993,5.198c-8.56,2.692-12.27,5.653-23.389,4.083
			c-3.044-0.429-6.808-0.566-8.909-1.485c-3.576-1.563-6.369-6.148-9.651-8.91c-3.538-2.976-6.988-5.214-10.767-7.796
			c-3.688,3.28-4.635,9.66-9.28,12.993c-4.163,2.988-18.302,6.988-25.614,6.683c-5.734-0.24-10.351-3.095-14.107-5.568
			c-1.003,1.421,0.572,3.229-0.742,4.455c-20.072-3.221-47.057-8.386-67.564-2.227c0.164-4.248-0.056-8.112-1.113-11.138
			c2.72,0.189,5.96,0.776,8.538,0c2.898-22.236,9.408-62.308-21.16-57.169c6.819,4.75,15.962,18.271,15.962,31.555
			c0,10.29-4.743,19.301-8.165,27.842c-2.944,1.511-5.299,3.611-8.91,4.456c21.792,6.803,37.641,21.492,64.223,22.273
			c0.263,2.49-0.381,4.073-0.371,6.311c-8.086,0.818-17.606,5.414-25.987,2.97c-5.221-1.522-7.763-7.213-12.25-8.909
			c7.7-7.396-6.463-13.435-12.621-8.167c-8.653-3.125-16.677-9.723-27.472-10.022c-8.894-0.248-18.42,3.014-29.327,1.484
			c-2.337-2.86-4.383-6.011-5.569-10.023c11.396,2.35,26.383,3.209,36.009,0c10.028-3.342,17.355-15.637,17.449-27.1
			c0.055-6.94-2.479-17.243-6.684-22.273c-2.211-2.647-6.58-4.953-9.651-7.054c-3.372-2.306-6.975-4.079-10.394-6.311
			c-1.557,2.281-1.98,5.692-2.6,8.91c-5.131-1.441-10.144-6.181-15.963-8.167c0.267,17.467-3.008,42.558,7.053,50.859
			c-0.845,2.742-1.91,5.266-2.97,7.795c-6.192-0.004-12.595-0.221-17.448,1.114c0.093,2.263,1.598,6.319,2.599,8.91
			c-2.046,1.047-5.119-0.071-7.425,0c-3.248-8.136-6.221-16.547-8.538-25.615c-1.039,3.044-1.587,6.58-2.97,9.281
			c-8.998,3.576-21.042,14.262-33.039,15.221c-12.964,1.036-21.211-3.457-26.357-11.88c1.807-2.399,4.978-3.436,8.167-4.455
			c-3.761-3.416-8.24-6.114-12.622-8.91c-7.532,8.105-12.513,27.098-27.471,27.472c-9.624,0.24-18.98-3.448-27.471-6.311
			c-0.909,2.281,2.191,5.719,0.743,8.538c-6.285,0.303-13.389-0.979-20.789-1.856c-13.837-1.64-36.859-5.463-50.859-0.371
			c-0.254,0.092-0.467,0.233-0.742,0.371c-6.293,3.166-12.486,7.586-20.417,11.508c-3.279,1.622-7.07,3.615-10.766,5.197
			c-3.73,1.598-8.44,4.2-11.137,4.456c-3.243,0.306-7.262-2.209-10.765-2.227c-2.897-0.016-7.402,1.589-11.138,2.597
			c-10.333,2.79-19.104,8.623-27.842,12.251c-16.764,6.963-29.343-7.116-37.123-15.591c-1.234-1.344-5.676-4.708-6.311-7.424
			c-0.795-3.403,0.606-8.631,1.113-12.25c0.54-3.848,1.466-7.425,2.227-10.766c0.725-0.878,3.696,2.177,4.826,3.341
			c-1.711,17.834,10.271,30.159,25.244,31.555c9.502,0.885,18.008-2.309,26.729-5.197c-2.225-9.966-7.31-18.381-7.054-30.07
			c0.123-5.629,1.957-11.499,2.227-17.448c0.326-7.143,0.694-15.984-1.855-20.789c8.27-1.476,17.801,1.247,26.358,1.856
			c-0.338,18.887-3.169,43.431,4.083,56.799c5.207,1.872,10.487,3.626,16.334,1.855c5.158-1.562,12.957-5.079,15.963-7.053
			c10.92-7.172,12.142-24.405,3.34-34.896c-1.852-2.208-3.746-3.577-5.939-5.197c-3.355-2.478-7.598-4.13-9.653-8.167
			c-7.447,5.152-22.306-0.245-15.963-9.281c2.407-0.907,5.4,0.105,7.426,0.742c1.887,0.539-2.28,0.749-1.485,2.599
			c5.222,4.123,13.834-3.278,12.621-10.766c-1.309-8.08-14.733-11.096-24.873-11.137c-23.987-0.096-41.01,16.002-47.146,32.297
			c-2.393,0.289-3.656-0.552-5.94-0.372c5.807-18.323,17.69-30.569,34.154-38.237c-2.525-0.539-6.575,0.598-9.653,0.742
			c-2.661-3.525-6.388-5.986-9.281-9.28c1.758-1.089,3.317-2.375,5.197-3.341c5.937,7.262,20.104,5.731,31.927,4.084
			c5.138-0.716,10.861-2.401,15.592-2.228c13.762,0.504,31.526,14.749,31.183,29.698c-0.186,8.094-5.951,11.647-13.365,14.107
			c6.806,5.292,16.362,6.558,20.419,14.849c2.938,6.007,2.689,14.752,2.227,24.13c4.45-0.746,8.423-1.971,11.136-4.455
			c1.346-18.382,9.472-50.212-12.621-51.601c-0.858-3.035-0.969-7.317-0.372-10.765c8.724,1.052,17.971,1.582,26.358,2.97
			c-0.646,10.072-1.666,21.222-1.114,33.782c0.691,15.713,1.001,32.247,17.448,25.986c-0.415-2.556-4.619-1.321-4.826-4.084
			c1.565-2.146,4.663-2.762,6.682-4.455c5.567,1.859,10.586,4.265,15.963,6.311c-0.708-10.593-8.591-24.604-4.456-36.751
			c1.385-4.065,4.712-8.67,7.426-11.879c4.138-4.894,10.528-8.665,16.705-10.766c0.577,4.566-1.63,9.148-2.599,13.364
			c-23.999,9.383-11.435,49.01,12.25,49.745c17.078,0.53,29.976-10.637,28.214-27.843c-1-9.759-9.111-22.801-18.933-23.016
			c-10.953-0.241-18.518,9.844-12.25,20.046c-5.574,0.127-11.1-3.006-16.335-4.455c4.639-6.892,10.928-14.885,17.077-22.273
			c1.666-2.002,4.183-6.279,6.311-6.683c3.235-0.613,8.39,2.27,11.879,3.712c4.009,1.656,7.515,3.085,10.766,4.826
			c2.618,5.427,4.996,11.091,6.683,17.448c-0.059-9.836,9.155-14.448,15.221-18.933c5.504-4.071,10.554-7.854,15.591-10.395
			c15.5,4.793,35.569,5.019,38.609,22.274c0.731-8.178,2.271-21.877-1.485-27.843c10.529-0.747,20.202,2.226,30.812,2.599
			c-24.033-11.48-50.087-20.941-84.64-21.903c-1.172-2.353-2.079-8.998,0-11.137C388.428,112.473,425.778,129.196,461.781,147.271z
			 M174.449,137.248c-5.685-2.43-12.867-0.288-20.419-0.372c12.156,5.169,26.951,7.698,32.297,19.676
			C186.347,147.84,179.63,139.463,174.449,137.248z M407.953,149.127c0.047,12.333-0.826,25.485-0.372,38.608
			c0.107,3.102,0.176,9.99,2.599,10.394c3.081,0.515,2.532-2.999,2.97-6.682c1.761-14.801,5.513-34.899-4.083-43.063
			c-0.511,0.015-0.815-0.175-1.113-0.372C407.953,148.385,407.953,148.756,407.953,149.127z M391.618,176.969
			c-0.053-8.321-5.336-17.645-11.136-22.274c-14.604-11.653-34.059,0.58-39.723,11.88c-1.522,3.036-2.393,7.586-1.484,10.766
			c2.639,9.238,12.917,15.364,22.645,17.077c-1.669,3.527-4.018,6.377-5.569,10.023
			C372.909,208.964,391.717,192.249,391.618,176.969z M698.255,200.357c3.999-0.37,2.879-5.885,3.342-9.652
			c1.441-11.763,3.929-31.713-3.713-37.494c-0.475-0.021-0.515-0.476-1.114-0.371C697.3,168.125,694.315,187.57,698.255,200.357z
			 M138.438,217.063c1.473-12.118,4.391-32.517-4.083-37.866c-0.079-0.449-0.412-0.229-0.743,0
			c0.723,15.442-2.513,34.29,1.485,47.146C138.993,226.168,137.984,220.813,138.438,217.063z M600.993,198.129
			c1.719-1.002,3.938-1.506,6.681-1.484c5.635,8.222,15.616,14.745,28.586,13.364c9.604-1.022,17.633-6.484,20.046-14.849
			c-13.982-7.178-35.673-6.648-51.972-11.507C607.494,188.85,601.688,194.547,600.993,198.129z"/>
		<path fill-rule="evenodd" clip-rule="evenodd" d="M617.697,107.921c0.643,4.931-2.055,8.226-6.311,7.053
			C609.759,110.558,613.334,106.345,617.697,107.921z"/>
		<path fill-rule="evenodd" clip-rule="evenodd" d="M628.092,115.346c-5.632-4.137,4.783-8.255,2.971-1.856
			C630.769,114.525,629.612,114.844,628.092,115.346z"/>
		<path fill-rule="evenodd" clip-rule="evenodd" d="M243.126,111.633c3.878-0.801,8.643-0.55,10.766,1.113
			c5.011,3.93,2.592,14.864-3.713,15.963c-1.764,0.308-6.03,0.24-8.167-0.743c-3.36-1.546-6.284-10.119-3.712-14.107
			C239.23,112.417,241.089,112.054,243.126,111.633z"/>
		<path fill-rule="evenodd" clip-rule="evenodd" d="M186.328,156.552c-5.346-11.978-20.142-14.506-32.297-19.676
			c7.552,0.083,14.734-2.058,20.419,0.372C179.63,139.463,186.347,147.84,186.328,156.552z"/>
		<path fill-rule="evenodd" clip-rule="evenodd" d="M407.953,148.014c0.298,0.196,0.602,0.387,1.113,0.372
			c9.596,8.164,5.844,28.261,4.083,43.063c-0.438,3.683,0.111,7.196-2.97,6.682c-2.422-0.404-2.491-7.292-2.599-10.394
			c-0.454-13.123,0.419-26.275,0.372-38.608C407.953,148.756,407.953,148.385,407.953,148.014z"/>
		<path fill-rule="evenodd" clip-rule="evenodd" d="M356.351,204.44c1.551-3.646,3.899-6.496,5.569-10.023
			c-9.728-1.713-20.006-7.839-22.645-17.077c-0.909-3.18-0.038-7.729,1.484-10.766c5.664-11.3,25.119-23.533,39.723-11.88
			c5.799,4.629,11.083,13.953,11.136,22.274C391.717,192.249,372.909,208.964,356.351,204.44z"/>
		<path fill-rule="evenodd" clip-rule="evenodd" d="M696.77,152.84c0.6-0.105,0.64,0.351,1.114,0.371
			c7.642,5.781,5.154,25.731,3.713,37.494c-0.463,3.767,0.657,9.282-3.342,9.652C694.315,187.57,697.3,168.125,696.77,152.84z"/>
		<path fill-rule="evenodd" clip-rule="evenodd" d="M739.833,176.969c1.096,5.486-5.816,6.195-6.312,2.599
			C733.151,176.872,737.423,174.732,739.833,176.969z"/>
		<path fill-rule="evenodd" clip-rule="evenodd" d="M135.098,226.344c-3.998-12.857-0.762-31.705-1.485-47.146
			c0.331-0.229,0.664-0.449,0.743,0c8.473,5.349,5.555,25.748,4.083,37.866C137.984,220.813,138.993,226.168,135.098,226.344z"/>
		<path fill-rule="evenodd" clip-rule="evenodd" d="M745.772,187.735c0,0.619,0,1.238,0,1.856c-0.999,0.97-3.455,0.97-4.455,0
			C740.978,187.139,744.396,186.212,745.772,187.735z"/>
		<path fill-rule="evenodd" clip-rule="evenodd" fill="#FFFFFF" d="M316.63,240.079c-2.04,4.211-0.303,10.557,1.484,13.365
			c-2.573,0.549-7.248-0.18-9.652,0c-0.157-2.137,1.737-2.223,2.227-3.712c-1.408-7.322,1.997-18.598-1.855-24.502
			c9.349-2.016,21.875-1.199,20.045,10.394C326.996,239.309,322.725,240.604,316.63,240.079z M316.63,227.457
			c-0.079,3.084-0.796,5.717-0.372,9.652c4.468,2.239,6.277-1.335,8.168-3.712c-0.249-1.731-1.734-2.226-1.485-4.455
			C321.758,227.694,318.951,226.357,316.63,227.457z"/>
		<path fill-rule="evenodd" clip-rule="evenodd" fill="#FFFFFF" d="M379.739,226.714c-1.924,6.477-0.229,14.728-0.743,23.387
			c-0.071,1.557,1.823,1.147,1.485,2.97c-1.039,0.372-5.385,1.301-4.827-1.113c-12.439,8.933-13.612-20.292-0.371-13.736
			c0.634-3.06,0.202-7.994-0.743-9.651C376.987,228.665,377.482,226.809,379.739,226.714z M373.799,251.217
			c1.998-1.813,1.938-8.037,0.743-10.766C367.226,237.779,365.681,252.375,373.799,251.217z"/>
		<path fill-rule="evenodd" clip-rule="evenodd" fill="#FFFFFF" d="M540.11,241.564c-0.366,5.88,0.19,8.543,2.228,11.879
			c-2.363,0.465-5.618-0.279-8.909,0c3.695-5.367,0.998-15.252,2.228-22.274c0.038-2.019-2.219-1.741-1.856-4.083
			c9.338-1.836,20.193,0.406,18.562,8.909C551.399,241.008,545.671,240.508,540.11,241.564z M540.854,229.313
			c-0.154,2.947-0.775,5.41-0.372,9.281c4.794,1.667,5.814-1.58,7.796-3.712c-0.871-1.605-1.412-3.538-2.227-5.198
			C544.689,229.298,542.383,228.346,540.854,229.313z"/>
		<path fill-rule="evenodd" clip-rule="evenodd" fill="#FFFFFF" d="M616.955,226.714c-0.061,8.339-1.205,19.743,1.856,26.729
			c-3.103-0.257-5.064,0.627-8.167,0.37c4.31-4.935,2.339-12.793,2.599-20.789c-0.093-1.145-1.336-1.138-1.856-1.855
			C612.563,229.004,614.182,227.282,616.955,226.714z"/>
		<path fill-rule="evenodd" clip-rule="evenodd" d="M322.941,228.942c-0.249,2.229,1.237,2.723,1.485,4.455
			c-1.891,2.377-3.7,5.951-8.168,3.712c-0.424-3.935,0.293-6.568,0.372-9.652C318.951,226.357,321.758,227.694,322.941,228.942z"/>
		<path fill-rule="evenodd" clip-rule="evenodd" d="M546.051,229.684c0.814,1.66,1.355,3.593,2.227,5.198
			c-1.981,2.132-3.002,5.379-7.796,3.712c-0.403-3.871,0.218-6.333,0.372-9.281C542.383,228.346,544.689,229.298,546.051,229.684z"
			/>
		<path fill-rule="evenodd" clip-rule="evenodd" fill="#FFFFFF" d="M424.658,231.541c0.998,1.039,0.947,4.061,0.371,5.567
			c-3.868-5.7-12.079-7.491-14.85-1.113c-3.224,7.424,0.531,19.11,10.766,15.222c2.619-0.998,1.8-3.346,4.827-4.456
			c-0.21,1.344,1.101,3.078,0,4.084c-6.331,5.762-18.384,2.395-20.418-4.456C402.054,235.284,412.662,226.797,424.658,231.541z"/>
		<path fill-rule="evenodd" clip-rule="evenodd" fill="#FFFFFF" d="M489.623,231.169c-2.889,3.898-1.681,15.004-1.485,22.274
			c-4.91-0.534-5.047-5.842-8.909-7.426c0-0.37,0-0.742,0-1.113c-2.374-2.327-4.934-4.472-6.311-7.796
			c-0.677,4.143-2.355,14.737,3.341,15.592c-1.161,1.387-6.04,0.79-7.797,0.372c3.076-4.727,3.437-17.581-0.37-21.531
			c2.104,0,4.208,0,6.312,0c2.232,6.552,7.679,9.893,11.509,14.849c0.165-4.559,1.486-12.677-2.6-15.22
			C485.486,230.638,487.372,230.889,489.623,231.169z"/>
		<path fill-rule="evenodd" clip-rule="evenodd" d="M748.371,237.108c-4.176,4.729-12.251,0.828-12.993-4.456
			C738.9,229.175,749.695,230.085,748.371,237.108z"/>
		<path fill-rule="evenodd" clip-rule="evenodd" fill="#FFFFFF" d="M382.708,232.653c2.859-0.011,5.804-0.111,8.167,0.372
			c-0.19,1.542-2.123,1.342-2.97,2.229c-0.154,5.919-1.593,20.358,8.538,15.963c4.564-1.982,3.419-15.102,0-18.192
			c2.29-0.882,4.305,0.071,6.683-0.372c-0.012,1.97-1.853,2.107-2.228,3.714c-0.12,4.829,0.425,10.325-0.742,14.106
			c-2.617,2.992-11.716,4.972-14.478,1.113c-3.035-4.239-0.347-10.759-1.115-15.963
			C384.455,234.201,381.745,233.979,382.708,232.653z"/>
		<path fill-rule="evenodd" clip-rule="evenodd" fill="#FFFFFF" d="M434.31,232.653c0.85,0.762-0.105,3.324,0.743,4.086
			c0.901,1.002,3.32-1.166,2.969,1.483c-0.309,1.299-2.341,0.875-3.34,1.485c0.361,3.969-1.272,9.935,2.227,10.766
			c-0.49,2.232-1.931,3.514-4.826,3.34c-0.01-0.361-0.454-0.288-0.742-0.37c-1.652-2.904-0.236-10.09-0.742-12.993
			c-0.155-1.576-3.713,0.247-2.971-2.229c-0.111-1.348,1.979-0.495,2.6-1.114C430.431,234.467,431.639,232.828,434.31,232.653z"/>
		<path fill-rule="evenodd" clip-rule="evenodd" fill="#FFFFFF" d="M447.303,232.653c-2.774,3.895-1.638,16.598-0.371,20.791
			c-2.326-0.54-3.946,0.5-5.939-0.372c1.693-3.612,2.758-15.611-0.742-20.047C442.606,232.333,444.425,233.077,447.303,232.653z"/>
		<path fill-rule="evenodd" clip-rule="evenodd" fill="#FFFFFF" d="M601.735,232.653c-3.009,5.037-1.79,11.197-1.114,17.82
			c2.741,2.061,7.188,0.229,8.167-1.857c0.711,0.897,0.234,2.985,0.371,4.456c-4.916,0.955-9.938-0.166-14.849,0.372
			c2.154-3.737,3.297-15.445,0.37-20.418C597.428,233.296,599.216,232.61,601.735,232.653z"/>
		<path fill-rule="evenodd" clip-rule="evenodd" fill="#FFFFFF" d="M627.722,235.624c-0.842,1.458-3.888-0.302-5.198-0.742
			C622.886,230.222,626.117,234.969,627.722,235.624z"/>
		<path fill-rule="evenodd" clip-rule="evenodd" fill="#FFFFFF" d="M363.776,241.564c1.57,15.32-19.246,14.896-21.16,3.712
			C340.361,232.096,361.396,229.951,363.776,241.564z M353.753,251.958c4.76-0.284,5.829-6.005,5.939-11.138
			c-1.26-2.327-3.219-3.958-4.826-5.938C344.782,233.407,343.926,252.543,353.753,251.958z"/>
		<path fill-rule="evenodd" clip-rule="evenodd" fill="#FFFFFF" d="M559.415,234.51c0.371,0,0.742,0,1.113,0
			c1.749,6.913,3.953,13.37,7.053,18.934c-1.855,0-3.711,0-5.568,0c2.521-2.073-0.336-6.282-1.484-8.167
			c-2.014,0.093-2.334,0.197-3.712,0.372c-1.659,1.991-2.91,5.363-1.114,7.795c-1.94,0.084-3.706-0.007-5.196-0.372
			C555.292,248.702,557.348,241.6,559.415,234.51z M557.93,243.791c0.438,0.427,1.312,0.42,2.228,0.372
			c0.189-0.75,0.124-3.946-1.114-4.456C558.5,240.896,557.771,241.9,557.93,243.791z"/>
		<path fill-rule="evenodd" clip-rule="evenodd" d="M354.867,234.882c1.607,1.98,3.566,3.612,4.826,5.938
			c-0.111,5.133-1.179,10.854-5.939,11.138C343.926,252.543,344.782,233.407,354.867,234.882z"/>
		<path fill-rule="evenodd" clip-rule="evenodd" fill="#FFFFFF" d="M660.39,235.995c0.423,0.815,0.958,1.517,0.742,2.97
			c-2.104-1.557-3.912-2.48-7.054-2.227c-0.952,1.447-0.65,4.718,0,7.052c2.1,0.243,2.045-1.667,3.712-1.855
			c0,1.609,0,3.217,0,4.826c-1.461-0.518-2.349-1.61-4.083-1.857c-0.244,1.778-0.555,5.465,0.743,7.424
			c3.915,0.822,3.919-2.268,6.311-2.969c-0.121,1.364,0.316,3.287-0.371,4.083c-3.961,0-7.919,0-11.88,0
			c3.033-3.271,2.611-15.452,0.371-17.448C652.072,235.993,657.476,235.482,660.39,235.995z"/>
		<path fill-rule="evenodd" clip-rule="evenodd" fill="#FFFFFF" d="M634.774,235.995c2.573,0.109,2.995,0.109,5.569,0
			c1.778,0.13-0.794,1.112-0.743,1.855c-0.585,3.964-0.15,7.499,0,12.623c1.743,2.634,6.477,0.547,7.424-1.113
			c-0.12,1.364,0.317,3.287-0.37,4.083c-4.811,0.095-7.95-0.29-12.251,0C636.863,249.308,637.196,240.683,634.774,235.995z"/>
		<path fill-rule="evenodd" clip-rule="evenodd" fill="#FFFFFF" d="M466.235,248.616c-5.916,10.026-20.521,2.885-15.962-7.796
			C453.809,232.537,469.737,236.083,466.235,248.616z M452.872,243.047c0.884,2.334,0.903,5.531,2.227,7.426
			c1.452,0.404,2.722,0.99,4.826,0.744C467.227,245.708,456.618,231.732,452.872,243.047z"/>
		<path fill-rule="evenodd" clip-rule="evenodd" fill="#FFFFFF" d="M685.262,242.677c0-0.495,0-0.99,0-1.485
			c-0.299,0.196-0.602,0.388-1.114,0.372C684.356,242.099,684.727,242.47,685.262,242.677c-0.746,0.722-2.493-0.706-3.341-1.113
			c0.184-2.044,1.146-3.31,1.484-5.197C684.659,238.315,689.668,242.5,685.262,242.677z"/>
		<path fill-rule="evenodd" clip-rule="evenodd" fill="#FFFFFF" d="M701.597,242.677c0-0.495,0-0.99,0-1.485
			c-0.299,0.196-0.604,0.388-1.114,0.372C700.69,242.099,701.062,242.47,701.597,242.677c-0.746,0.722-2.494-0.706-3.342-1.113
			c0.185-2.044,1.145-3.31,1.485-5.197C700.993,238.315,706.002,242.5,701.597,242.677z"/>
		<path fill-rule="evenodd" clip-rule="evenodd" fill="#FFFFFF" d="M340.018,237.85c1.033,0.668,1.033,3.419,0,4.085
			c-1.74,0.377-2.111-0.611-2.97-1.115c-1.368,2.742-0.754,10.207,0.743,12.623c-2.596-0.245-4.371,0.331-6.683,0.37
			c2.317-2.479,2.99-11.04,0-13.363C334.452,238.374,335.532,237.954,340.018,237.85z"/>
		<path fill-rule="evenodd" clip-rule="evenodd" fill="#FFFFFF" d="M578.347,237.85c1.035,0.668,1.035,3.419,0,4.085
			c-1.739,0.377-2.11-0.611-2.969-1.115c-1.368,2.742-0.755,10.207,0.742,12.623c-2.595-0.245-4.371,0.331-6.683,0.37
			c2.317-2.479,2.989-11.04,0-13.363C572.782,238.374,573.861,237.954,578.347,237.85z"/>
		<path fill-rule="evenodd" clip-rule="evenodd" d="M459.925,251.217c-2.104,0.247-3.374-0.34-4.826-0.744
			c-1.323-1.895-1.343-5.092-2.227-7.426C456.618,231.732,467.227,245.708,459.925,251.217z"/>
		<path fill-rule="evenodd" clip-rule="evenodd" fill="#FFFFFF" d="M591.712,251.586c-1.743,3.437-5.318,0.64-9.281,1.857
			c-5.134-6.414,6.409-6.648,4.084-12.623c-1.567,0.29-2.117,1.596-4.455,1.115c-1.043-3.438,6.747-4.695,7.796-1.115
			c0,2.847,0,5.692,0,8.54C589.768,250.809,591.9,250.037,591.712,251.586z M585.03,250.845c0.494,0,0.989,0,1.484,0
			c0.346-0.71,1.069-4.363-0.371-4.456C584.838,246.831,584.089,249.342,585.03,250.845z"/>
		<path fill-rule="evenodd" clip-rule="evenodd" fill="#FFFFFF" d="M632.176,243.047c-2.954-0.23-4.8,0.647-7.796,0.372
			c-0.854,2.077-0.532,5.9,1.113,6.683c2.43,0.441,5.329-0.599,6.311-0.37c1.345,3.748-3.802,4.075-7.795,3.712
			c-4.824-2.868-4.75-17.895,5.197-14.85C630.54,239.736,632.04,240.71,632.176,243.047z M624.009,241.564
			c1.161-0.077,2.725,0.25,3.341-0.372C627.465,239.232,623.722,240.005,624.009,241.564z"/>
		<path fill-rule="evenodd" clip-rule="evenodd" d="M559.043,239.707c1.238,0.509,1.304,3.705,1.114,4.456
			c-0.916,0.048-1.789,0.056-2.228-0.372C557.771,241.9,558.5,240.896,559.043,239.707z"/>
		<path fill-rule="evenodd" clip-rule="evenodd" d="M374.542,240.451c1.195,2.729,1.255,8.954-0.743,10.766
			C365.681,252.375,367.226,237.779,374.542,240.451z"/>
		<path fill-rule="evenodd" clip-rule="evenodd" d="M627.35,241.192c-0.616,0.622-2.18,0.295-3.341,0.372
			C623.722,240.005,627.465,239.232,627.35,241.192z"/>
		<path fill-rule="evenodd" clip-rule="evenodd" fill="#FFFFFF" d="M681.55,242.306c0.487,0.132,0.584,0.654,1.113,0.742
			c-0.09,0.654-0.639,0.847-1.484,0.744C681.021,243.015,681.433,242.808,681.55,242.306z"/>
		<path fill-rule="evenodd" clip-rule="evenodd" fill="#FFFFFF" d="M697.884,242.306c0.487,0.132,0.584,0.654,1.113,0.742
			c-0.09,0.654-0.639,0.847-1.484,0.744C697.355,243.015,697.768,242.808,697.884,242.306z"/>
		<path fill-rule="evenodd" clip-rule="evenodd" d="M586.144,246.39c1.44,0.093,0.717,3.746,0.371,4.456c-0.495,0-0.99,0-1.484,0
			C584.089,249.342,584.838,246.831,586.144,246.39z"/>
		<path fill-rule="evenodd" clip-rule="evenodd" fill="#FFFFFF" d="M677.837,252.7c1.941,2.618,4.767,6.486,1.856,10.766
			c-2.43-0.034-3.701,0.061-5.568,0.372C674.501,260.354,676.45,256.294,677.837,252.7z"/>
		<path fill-rule="evenodd" clip-rule="evenodd" fill="#FFFFFF" d="M694.171,252.7c1.941,2.618,4.767,6.486,1.856,10.766
			c-2.43-0.034-3.702,0.061-5.568,0.372C690.837,260.354,692.785,256.294,694.171,252.7z"/>
		<path fill-rule="evenodd" clip-rule="evenodd" d="M592.454,269.405c-0.06,0.432,0.082,0.661,0.371,0.743
			c-0.314,0.552-1.195,0.538-1.855,0.742c0-0.37,0-0.742,0-1.113C591.636,269.825,591.752,269.323,592.454,269.405z"/>
		<path fill-rule="evenodd" clip-rule="evenodd" d="M617.697,287.225c0.719-1.207,2.659,2.497,0.371,2.227
			C617.855,288.799,618.518,287.271,617.697,287.225z"/>
		<path fill-rule="evenodd" clip-rule="evenodd" d="M642.941,318.779c-1.917-2.328-3.684-2.936-4.083-5.568
			c-0.226-1.477,0.823-3.432,0.742-4.828c-0.174-2.988-2.297-4.688-1.485-7.424c1.361-4.579,9.085-3.792,10.395,1.484
			c0.492,1.984-0.435,3.994,0,5.57c0.503,1.822,3.63,2.521,3.712,4.824C652.352,316.486,646.354,317.637,642.941,318.779z"/>
		<path fill-rule="evenodd" clip-rule="evenodd" d="M660.761,306.156c0.896,1.049,1.606,3.113,0.742,4.828
			c-0.876,1.16-3.532,1.477-5.197,0.74C653.816,309.008,656.553,304.195,660.761,306.156z"/>
		<path fill-rule="evenodd" clip-rule="evenodd" d="M453.985,319.521c-0.396,0.842-1.126,1.35-2.228,1.484
			C451.937,319.947,453.167,319.941,453.985,319.521z"/>
		<path fill-rule="evenodd" clip-rule="evenodd" d="M759.508,145.416c-1.156,14.117-18.016,11.505-31.926,10.395
			c-1.303,0.8-0.24,3.966-1.113,5.197c3.909,1.288,4.39,6.004,7.796,7.795c1.326,6.324-7.012,6.394-8.168,2.228
			c-0.716,4.184-0.481,10.626,0,14.85c11.174,2.066,14.599,11.883,27.843,11.879c0.97,1.876,2.231,3.46,2.97,5.568
			c-9.754,0.065-13.222,10.137-16.705,17.077c-3.221,6.416-5.915,12.36-8.167,17.446c0,0.99,0,1.982,0,2.97
			c-0.853,0.51-1.193,1.53-1.856,2.227c-8.545,0.693-13.659,7.494-23.017,4.084c-1.137,2.757-3.384,6.948-4.826,11.509
			c-0.967,3.056-1.014,6.795-2.97,8.538c-2.344,2.091-9.739,2.561-12.622-0.742c-0.682,0.556-0.925,1.549-1.855,1.855
			c-1.255,0.142-1.584-0.643-2.228-1.113c-4.539,2.525-12.924,2.597-13.364-3.712c-0.24-3.449,1.971-5.674,2.599-9.281
			c-2.333-0.196-4.346,0.951-6.311,0c-2.518,5.188-8.691,3.351-17.819,3.34c-6.655-0.005-11.402,1.346-15.221-0.37
			c-2.759,1.054-8.887,1.297-11.137-0.372c-6.178,2.892-16.926,0.334-24.131,1.114c2.564,9.032-13.398,10.829-11.508,0
			c-2.615,0.018-5.292,0.096-6.311-1.483c-4.855,2.584-15.259,2.157-20.789,0.37c-2.939,1.88-11.058,1.813-11.879-1.855
			c-2.12,4.545-14.022,4.098-17.447,0.742c-1.69,0.415-3.336,0.872-5.198,1.113c3.215,0.746,5.716,2.204,7.054,4.828
			c1.688-4.545,8.54-0.783,4.825,2.968c1.041,2.549,2.923,4.255,5.569,5.197c0.726,0.834,0.323,2.792,0,3.712
			c2.349,1.673,4.45,0.606,7.054,0c-0.31,1.299-2.343,0.876-3.342,1.485c0.355,2.212-0.688,3.024-1.485,4.083
			c1.718,2.052,4.839,0.613,5.198,3.342c0.313,2.372-2.058,2.384-3.713,4.082c0.246,1.487,0.779,2.686,1.114,4.083
			c1.953,0.647,4.244,0.953,6.31,1.485c6.337-3.993-3.729-17.561,3.343-21.902c1.476-0.906,3.041-0.726,5.938-0.743
			c2.032,1.558,3.809,3.371,4.084,6.682c5.444-0.157,7.081-5.571,11.88-5.197c1.924-3.572-2.93-7.286,0-9.651
			c3.108,1.208,1.023,4.063,1.855,6.311c1.738,4.699,8.268,4.477,14.479,3.712c-0.093,0.404-0.738,0.252-0.743,0.743
			c1.964,0.601,0.723-2.001,2.229-1.857c1.882,2.692,3.641,6.472,7.424,5.197c0.113,0.856-1.071,0.413-1.113,1.114
			c5.36,3.177,7.979,9.096,14.107,11.507c0.626,1.229,1.354,2.357,2.227,3.342c-1.65,1.616-0.528,5.976,0.371,7.424
			c2.052-1.686,2.479,1.291,5.939,0c-1.494,0.898-3.15,2.375-4.825,1.113c0,0.744,0,1.484,0,2.229
			c1.159,0.41,2.906,0.281,5.197,0.369c-1.132-7.039,7.491-8.972,11.137-4.824c1.721,2.785,0.646,6.896,1.113,8.537
			c-3.771,2.996-11.49,2.75-11.88-3.34c-1.113,0-2.228,0-3.341,0c-0.577,0.539,0.076,1.939-0.742,2.971
			c-1.514-0.094,0.567-1.969-1.114-2.229c-1.28,0.68-0.559,2.789-0.37,4.082c0.715-0.148,0.293-1.438,1.484-1.113
			c-2.445,4.232-1.028,9.102-1.484,14.107c-0.668,7.311-8.412,7.484-11.138,13.736c-1.724,0.363-0.504-2.219-2.227-1.857
			c1.519,1.498-1.968,1.486-2.971,2.6c-1.223-1.01,1.527-1.172,1.484-2.227c-1.642-0.715-3.867,0.033-5.196,0.742
			c0.304,1.303,2.685-1.287,2.598,0.742c-3.938-0.4-4.294,4.396-7.796,5.566c-4.807,1.609-11.14-0.539-16.334,0.373
			c-1.859,4.25-7.046,9.176-7.052,15.221c-5.988-1.654-6.443,7.645-13.736,7.053c-1.64,0.836-1.589,3.361-3.342,4.084
			c-5.165-0.975-10.809,3.754-14.849,3.34c-1.635-0.166-2.582-2.236-4.083-2.598c-2.122-0.512-4.635,0.805-6.684,0.371
			c-4.477-0.949-9.66-6.01-12.992-8.537c-2.367-1.799-4.887-2.285-4.826-5.939c-2.788-0.979-2.735-2.807-3.712-6.684
			c-0.957-3.801-4.348-7.035-4.455-9.652c-0.106-2.605,1.577-4.891,1.484-7.426c-1.685-4.279-4.521-4.232-8.909-6.309
			c-2.776-1.314-4.438-4.994-8.167-5.199c-2.994-0.162-5.515,2.51-9.281,1.486c-6.546-1.781-0.351-7.385-0.741-12.623
			c-0.22-2.924-2.254-3.588-4.084-5.568c-0.16-2.685,0.343-6.034-2.599-5.938c1.256-2.377,2.003-8.532,0.742-12.251
			c-0.761-1.416-2.216-0.699-3.341-1.113c0.463-1.564,1.521,0.036,2.599,0c1.782-2.55,3.876-4.786,3.341-9.652
			c1.751-1.217,3.827-2.112,4.083-4.826c-2.868-3.688-11.384-1.731-11.879-7.795c3.418-2.018,6.395,1.728,8.539,3.34
			c3.221-0.325,5.18,0.331,7.795-0.37c1.081-1.147,0.835-3.621,2.6-4.084c2.246,0.336,5.597,0.933,9.279,0.37
			c0.143-2.055,0.721-5.249-1.113-6.311c-0.034,6.697-11.305,6.648-12.25,0.743c0.094,6.179-12.328,5.383-15.592,2.599
			c-3.517,2.924-10.378,2.418-14.106,0c-2.519,1.914-5.933,1.884-9.652,1.855c-0.371,1.004,1.402,3.042,1.855,4.456
			c-0.112,1.126-1.432,1.042-1.484,2.227c0.57,1.285,1.335,2.379,2.97,2.599c1.254-0.15-0.988-1.438,0.743-1.113
			c0.176,4.278,3.608,5.301,4.455,8.909c2.979,3.188,4.902,7.068,8.166,10.394c1.557,1.587,3.951,2.627,5.197,4.456
			c2.453,3.598,3.15,7.977,6.682,10.766c-8.196-6.901-13.725-19.686-23.758-25.987c-0.431-3.528-2.929-4.99-4.826-7.053
			c-3.628-1.083-8.247-4.073-10.395,0c0.055,3.164,1.067,5.367,3.341,6.311c-4.422-0.338-4.993,3.172-5.567,6.682
			c-0.078,1.934,2.422,1.289,2.969,2.599c-1.186,1.66-3.534,2.159-4.455,4.084c1.931,3.265,3.453,6.941,7.054,8.537
			c1.049,5.015,4.179,7.949,7.425,10.765c1.261-0.348,1.136-2.08,1.856-2.969c3.035,0.676,4.553,2.869,7.053,4.082
			c0.242,2.291,0.315,3.08,1.856,4.457c1.533,0.178-0.497-1.141,1.485-0.744c1.759,2.076,3.136,4.537,3.712,7.795
			c-3.424-1.895-4.319-6.32-7.795-8.164c-0.798,0.688-2.72,0.25-4.084,0.369c-6.624-2.307-8.694-10.416-13.736-14.848
			c-3.742-3.293-8.014-5.132-11.879-8.539c-7.913,0.502-15.234,1.596-21.16,4.083c-0.006-2.779-1.869-4.734-4.455-4.825
			c-2.879-0.102-3.8,3.011-5.94,2.599c0.434-2.165,3.016-2.183,4.825-2.971c-3.656-5.517-13.6-8.18-21.159-5.569
			c-1.277-0.331-2.314-0.902-3.341-1.485c-4.13,1.685-10.471,1.162-12.994,4.455c0,1.239,0,2.476,0,3.712
			c0.849,1.473,2.318-1.391,2.229,0.372c-2.382,0.834-2.756,3.68-3.713,5.94c-2.24,1.1-5.079,1.604-8.167,1.855
			c-1.303,0.102,0.932,1.383-0.372,1.485c-2.831,0.227-2.99-4.179-6.311-2.228c-1.739-0.612-1.643-3.061-2.97-4.083
			c-0.654-0.688-1.149,0.095-1.484,0.742c-1.124-0.454,0.262-1.416,0.371-1.855c-3.922-3.305-6.993,1.126-9.652,3.34
			c-2.773,2.313-7.355,4.302-7.795,7.054c-0.814,5.09,5.141,4.705,5.568,10.021c-9.286,1.168-13.867-5.688-23.758-2.971
			c-2.523,0.695-5.284,2.951-9.652,1.115c-2.218-2.473-4.881-6.184-10.023-5.197c-1.806,0.346-2.975,2.041-4.826,2.598
			c-2.259,0.684-4.999,0.039-7.796,0.371c-2.208,0.264-4.659,1.77-7.053,1.855c-3.463,0.129-7.729,0.504-8.909,3.715
			c-0.965-0.15-1.12-1.109-2.228-1.113c-0.207,0.533-0.579,0.904-1.113,1.113c-0.257,3.102,1.378,4.314,2.97,5.566
			c-0.973,1.189-1.278-1.418-2.599-1.113c-0.655,0.336-1.15,0.83-1.485,1.484c-0.553,2.42,2.836,2.842,2.227,4.084
			c-1.684-0.172-2.201-1.51-4.083-1.484c-0.744,3.844,3.551,4.895,1.857,7.424c-3.299-0.166-3.203-3.727-4.084-6.309
			c-2.733,2.586-6.729,3.912-7.796,8.166c-2.108-1.195-3.07,0.137-5.569,0.371c-0.682,2.162-0.06,5.631-0.742,7.795
			c-2.583-0.758-1.34-5.342-3.342-6.682c-0.919,2.299,0.438,6.873-2.599,7.053c-0.661,4.369,5.275,5.703,3.713,8.539
			c0.728,1.623-1.879-1.393-2.97-1.484c-0.355-2.49-1.271-4.42-2.599-5.939c-3.124,1.455-3.713,5.443-7.795,5.939
			c2.472-2.781,7.856-4.438,6.681-9.652c2.1-0.33,2.044,2.066,3.713,1.113c2.229-1.641,0.793-5.889-1.485-6.311
			c-2.958,1.037-3.458,6.395-7.424,5.197c-0.706,0.656-0.881,1.842-1.485,2.598c-1.489,0.713-3.226-0.117-4.456-0.742
			c-1.685,0.541-1.55,2.904-1.485,5.197c-1.646,0.326-3.756-0.15-4.083,2.229c-0.76-2.867,2.672-4.75,2.599-8.168
			c-1.685-0.666-3.009-1.693-4.826-2.227c1.365-2.398-0.217-4.852-1.113-7.053c-9.22-0.189-8.931,9.133-13.365,13.734
			c0.137-3.209,3.572-6.324,4.083-10.395c-8.816,1.18-17.3,6.551-25.243,11.137c-3.265,1.885-6.923,3.639-10.396,5.568
			c-4,2.225-8.148,5.615-12.992,6.313c-3.13,0.449-6.496-0.625-9.651,0c-3.477,0.686-5.024,4.189-8.91,4.824
			c1.777-2.307,5.144-3.021,7.053-5.197c-5.234-2.75-13.481-6.936-16.705-14.105c-2.511-5.584-0.293-8.098,3.712-10.395
			c-3.69-0.176-10.963,1.113-14.849,0.742c-0.04-3.506,4.37-2.561,6.683-3.713c-1.549-2.893,1.386-6.365,3.341-8.908
			c1.771-0.287,1.648,1.322,3.34,1.113c0.304-1.428,1.6-1.867,2.228-2.971c4.26-5.184,13.487-7.471,24.501-6.311
			c-0.052-0.691-0.245-1.24-0.743-1.486c1.2-0.076,2.244,3.195,4.455,3.344c3.333-0.893,2.056-0.701,6.311-1.486
			c-0.633,1.881-2.425,3.17-4.826,2.227c9.444,8.705-1.165,25.689-14.106,21.904c-0.753-1.723-0.988-3.961-2.228-5.199
			c-4.291-2.068-6.63,2.756-9.281,4.084c-2.444,1.223-5.174,0.205-5.939,2.6c-0.679,2.121,1.084,5.115,2.227,6.682
			c2.623,3.6,9.873,10.049,15.222,9.652c2.404-0.178,10.891-6.133,13.364-7.795c5.788-3.893,15.289-9.406,18.933-14.479
			c1.621-2.256,2.199-5.283,3.712-7.055c2.915-3.412,8.829-4.447,10.395-7.795c-0.232-0.756-1.876-0.104-1.485-1.486
			c5.367-1.189,9.595-3.52,15.221-4.455c-1.892-4.199-7.005-4.613-10.023-7.424c-0.967-0.898-1.362-2.421-2.227-3.339
			c-3.512-3.732-7.633-4.515-12.993-6.683c3.426,0.659,6.909,1.258,10.767,1.485c-2.931-4.188,2.174-10.563,3.712-14.85
			c0.949-2.645,2.305-4.597,2.969-6.311c1.362-3.512,0.432-7.228,4.455-7.424c0.965-0.046,2.196,0.354,2.971,1.114
			c3.867-2.52,7.595-6.901,8.167-11.508c2.347-0.325,4.329-1.91,6.681-1.115c5.629,1.907,0.197,12.192,2.228,17.077
			c7.343,0.48,7.818-13.218,15.22-11.136c0.736,0.208,1.904,1.062,2.227,2.227c1.635,5.901-6.289,7.216-8.538,10.394
			c2.511,1.821,5.295,3.367,5.939,7.054c1.797-0.754,3.78,0.132,5.197-0.372c-0.692,1.286-2.901,1.058-4.454,1.484
			c0.626,2.467,1.609,4.577,2.599,6.683c4.475-1.464,9.584-2.295,11.88-5.94c-0.749-2.838-5.843-1.335-8.54-2.227
			c4.563-1.73,9.099,1.047,13.365,1.856c-4.46,3.088-10.618,4.479-15.221,7.424c4.941,3.723,8.793,8.532,12.622,13.364
			c4.924-0.418,9.712-2.205,14.106-2.227c1.358-0.008,2.411,0.684,3.712,0.371c1.797-0.431,2.76-2.36,4.456-2.969
			c3.237-1.159,6.759-0.095,9.281-2.599c1.486,0.247,2.545,0.919,3.712,1.485c4.198-0.338,5.22-4.452,8.167-6.684
			c6.274-4.749,14.737-6.223,21.16-11.135c-0.387-2.955-2.517-4.165-3.712-6.311c0.252-3.642,4.127-4.159,2.969-8.167
			c1.123-1.6,3.099-2.345,4.084-4.083c-5.7,2.112-9.353-5.828-5.197-9.281c0.152-6.26,0.136-11.776,0.372-18.561
			c-6.861,0.302-12.176-0.941-17.82-1.856c-2.867,1.861-5.124,4.325-8.909,4.826c-0.957,0.127-2.042-0.272-2.969,0
			c-4.778,1.401-5.988,7.458-10.395,7.426c-0.977-3.989,4.563-4.563,5.94-7.426c1.135-0.268,1.092,0.642,2.227,0.372
			c-11.803-2.816-26.384-4.104-40.464-4.826c-6.921-0.355-15.997-1.462-22.645,0.742c-3.232,1.072-6.674,4.246-10.395,6.311
			c-9.705,5.388-22.734,11.926-33.411,15.593c-4.205,1.442-10.152-0.091-15.22-1.485c-6.727,1.882-12.638,3.485-18.562,5.939
			c-10.018,4.146-18.912,11.844-34.154,10.022c-14.396-1.719-24.921-12.262-33.782-21.902c-4.279-4.656-9.345-8.861-8.538-17.077
			c1.415-14.408,0.626-36.478,17.819-34.524c6.478,0.736,15.617,8.484,15.962,16.333c0.082,1.871-0.476,3.532-0.371,5.198
			c0.728,11.6,11.447,15.767,23.388,13.364c-4.322-11.473-3.987-26.138-1.856-39.722c-11.092,5.625-30.159,0.22-26.358-14.85
			c2.601-10.309,10.517-21.219,16.334-27.842c-0.427-0.439-0.42-1.312-0.371-2.228c1.632-0.347,3.257-0.702,4.083-1.856
			c-16.816-14.418,11.449-37.479,24.131-22.273c13.044,2.936,25.13-3.84,36.752-3.341c14.316,0.615,24.69,8.898,33.039,17.077
			c1.336,0.099,1.788-0.686,2.97-0.743c14.657,2.238,38.805-1.673,41.207,12.993c0.617,3.767-0.168,8.281-0.371,12.251
			c-0.503,9.799-0.999,19.977,0,30.069c1.591-0.39,2.697-1.263,4.826-1.114c-3.98-18.361,3.505-31.165,12.993-40.464
			c6.975-6.835,18.56-15.8,29.327-11.508c13.598-6.492,31.706,4.988,40.464,10.395c7.268-4.859,13.595-10.659,21.903-14.478
			c-5.212-1.777-8.923-0.619-12.622-1.114c-17.107-2.288-15.504-34.024-1.114-36.38c2.405-0.394,5.396,0.525,7.795,0
			c37.557,7.487,70.18,19.905,100.975,34.153c3.532-3.297,9.145-7.813,17.077-5.197c3.025,0.998,4.823,3.713,8.167,5.94
			c4.729,3.15,12.124,4.981,18.562,5.939c4.571,0.681,10.013,0.033,14.849,1.485c11.216,3.368,8.857,15.433,8.168,27.843
			c1.189-3.692,7.331-3.599,8.909-0.372c1.004-1.471,1.135-3.814,2.228-5.197c-1.199-1.586-2.777-4.563-1.485-7.425
			c1.606-0.833,4.755-0.413,5.568,0.743c1.469-0.759,2.34-2.116,4.455-2.228c-0.631-3.993-0.469-7.092,2.228-8.538
			c-2.964-3.1-6.022-6.105-12.251-5.94c-2.467-5.362-12.065-1.839-12.992-8.91c-0.55-4.187,1.758-7.976,7.053-8.167
			c3.178-2.828,4.932-7.441,7.425-11.509c1.863-3.039,6.619-8.874,10.395-9.652c3.15-0.649,8.844-2.688,11.879-2.599
			c1.607,0.048,3.17,1.21,4.454,1.486c1.559,0.333,3.075-0.087,4.455,0.371c2.796,0.927,4.292,3.788,7.425,4.084
			c0.427,4.771,3.834,6.561,7.796,7.796c1.183,1.82,0.186,2.658,1.485,3.712c2.685,2.176,8.538-0.938,8.538,3.341
			c0,2.782-3.254,2.327-5.197,2.97c-3.475,1.149-7.45,3.566-7.796,7.424c0.63,0.961,1.727-0.719,2.97-0.372
			c1.933,2.028,3.556,4.365,7.425,4.455c1.774,0.702,1.19,3.759,3.341,4.084c5.26-1.872,3.688-9.91,0.372-12.622
			c-0.519-6.249,3.377-13.737,9.651-12.993c3.57,0.422,4.846,7.241,4.826,13.735c-0.01,3.356-1.678,6.638-1.856,9.281
			c-0.142,2.11,0.559,3.818,0.372,5.197c-0.541,3.981-5.978,6.043-2.971,9.652c2.832-3.727,1.682-11.435,8.909-10.766
			c3.702,6.319-4.645,9.181-8.537,11.508c0.587,1.393,2.169,1.79,4.083,1.856c3.633-9.541,23.945-12.665,38.979-13.364
			c4.877-0.227,10.223,0.365,14.107,1.485c7.239-5.22,11.684-17.509,17.819-25.615c2.574-3.4,7.814-5.797,13.364-7.054
			c9.138-2.069,28.085-9.447,37.494-2.969c5.967,4.107,9.094,19.299,1.485,25.986c15.753,0.616,36.059-5.172,38.236,10.022
			C759.508,138.485,759.508,141.95,759.508,145.416z M342.245,104.58c-2.079,2.139-1.172,8.784,0,11.137
			c34.553,0.962,60.607,10.423,84.64,21.903c-10.61-0.373-20.282-3.346-30.812-2.599c3.757,5.965,2.216,19.665,1.485,27.843
			c-3.04-17.255-23.108-17.48-38.609-22.274c-5.037,2.541-10.086,6.323-15.591,10.395c-6.066,4.485-15.28,9.097-15.221,18.933
			c-1.687-6.357-4.065-12.021-6.683-17.448c-3.251-1.74-6.757-3.169-10.766-4.826c-3.489-1.442-8.645-4.326-11.879-3.712
			c-2.127,0.403-4.645,4.681-6.311,6.683c-6.149,7.389-12.438,15.381-17.077,22.273c5.235,1.448,10.761,4.582,16.335,4.455
			c-6.267-10.203,1.297-20.287,12.25-20.046c9.821,0.215,17.933,13.257,18.933,23.016c1.762,17.206-11.136,28.373-28.214,27.843
			c-23.685-0.735-36.249-40.362-12.25-49.745c0.969-4.216,3.175-8.798,2.599-13.364c-6.177,2.101-12.567,5.873-16.705,10.766
			c-2.714,3.208-6.041,7.813-7.426,11.879c-4.135,12.147,3.748,26.159,4.456,36.751c-5.377-2.046-10.396-4.452-15.963-6.311
			c-2.02,1.693-5.117,2.308-6.682,4.455c0.207,2.763,4.412,1.529,4.826,4.084c-16.447,6.261-16.757-10.273-17.448-25.986
			c-0.552-12.56,0.468-23.71,1.114-33.782c-8.387-1.388-17.634-1.918-26.358-2.97c-0.597,3.448-0.486,7.73,0.372,10.765
			c22.093,1.389,13.967,33.219,12.621,51.601c-2.713,2.484-6.686,3.709-11.136,4.455c0.463-9.378,0.711-18.123-2.227-24.13
			c-4.057-8.291-13.613-9.558-20.419-14.849c7.414-2.459,13.179-6.013,13.365-14.107c0.343-14.95-17.421-29.194-31.183-29.698
			c-4.731-0.174-10.454,1.511-15.592,2.228c-11.822,1.647-25.99,3.178-31.927-4.084c-1.88,0.966-3.439,2.252-5.197,3.341
			c2.894,3.294,6.62,5.755,9.281,9.28c3.078-0.144,7.128-1.281,9.653-0.742c-16.464,7.667-28.347,19.914-34.154,38.237
			c2.284-0.18,3.547,0.661,5.94,0.372c6.135-16.295,23.159-32.393,47.146-32.297c10.14,0.041,23.563,3.057,24.873,11.137
			c1.213,7.488-7.399,14.889-12.621,10.766c-0.795-1.85,3.372-2.06,1.485-2.599c-2.026-0.637-5.019-1.649-7.426-0.742
			c-6.343,9.036,8.516,14.433,15.963,9.281c2.055,4.037,6.297,5.689,9.653,8.167c2.193,1.62,4.087,2.99,5.939,5.197
			c8.802,10.491,7.58,27.724-3.34,34.896c-3.006,1.974-10.806,5.491-15.963,7.053c-5.848,1.771-11.128,0.017-16.334-1.855
			c-7.251-13.368-4.42-37.912-4.083-56.799c-8.557-0.609-18.088-3.332-26.358-1.856c2.549,4.805,2.181,13.646,1.855,20.789
			c-0.27,5.949-2.104,11.818-2.227,17.448c-0.256,11.689,4.829,20.104,7.054,30.07c-8.722,2.888-17.227,6.082-26.729,5.197
			c-14.973-1.396-26.955-13.721-25.244-31.555c-1.13-1.165-4.102-4.22-4.826-3.341c-0.761,3.341-1.687,6.918-2.227,10.766
			c-0.507,3.62-1.909,8.848-1.113,12.25c0.634,2.716,5.077,6.08,6.311,7.424c7.78,8.475,20.359,22.555,37.123,15.591
			c8.738-3.628,17.509-9.461,27.842-12.251c3.736-1.008,8.241-2.613,11.138-2.597c3.503,0.018,7.522,2.532,10.765,2.227
			c2.697-0.255,7.406-2.857,11.137-4.456c3.696-1.582,7.487-3.575,10.766-5.197c7.931-3.922,14.125-8.342,20.417-11.508
			c0.275-0.138,0.488-0.279,0.742-0.371c14-5.092,37.021-1.269,50.859,0.371c7.4,0.877,14.504,2.16,20.789,1.856
			c1.449-2.819-1.651-6.257-0.743-8.538c8.491,2.863,17.847,6.551,27.471,6.311c14.958-0.374,19.939-19.366,27.471-27.472
			c4.382,2.796,8.861,5.494,12.622,8.91c-3.189,1.019-6.36,2.056-8.167,4.455c5.146,8.423,13.393,12.916,26.357,11.88
			c11.997-0.959,24.042-11.645,33.039-15.221c1.383-2.701,1.931-6.236,2.97-9.281c2.316,9.068,5.29,17.479,8.538,25.615
			c2.306-0.071,5.378,1.047,7.425,0c-1-2.591-2.505-6.647-2.599-8.91c4.853-1.335,11.255-1.119,17.448-1.114
			c1.06-2.529,2.125-5.053,2.97-7.795c-10.061-8.301-6.786-33.392-7.053-50.859c5.819,1.987,10.832,6.726,15.963,8.167
			c0.619-3.217,1.043-6.629,2.6-8.91c3.419,2.232,7.021,4.005,10.394,6.311c3.071,2.101,7.44,4.406,9.651,7.054
			c4.204,5.031,6.738,15.333,6.684,22.273c-0.094,11.462-7.421,23.758-17.449,27.1c-9.626,3.209-24.613,2.35-36.009,0
			c1.186,4.012,3.231,7.164,5.569,10.023c10.907,1.53,20.434-1.732,29.327-1.484c10.795,0.3,18.818,6.898,27.472,10.022
			c6.158-5.267,20.321,0.771,12.621,8.167c4.487,1.696,7.029,7.387,12.25,8.909c8.381,2.443,17.901-2.152,25.987-2.97
			c-0.01-2.237,0.634-3.821,0.371-6.311c-26.582-0.781-42.431-15.47-64.223-22.273c3.611-0.844,5.966-2.944,8.91-4.456
			c3.422-8.541,8.165-17.552,8.165-27.842c0-13.283-9.143-26.804-15.962-31.555c30.568-5.139,24.059,34.933,21.16,57.169
			c-2.578,0.776-5.818,0.189-8.538,0c1.058,3.026,1.277,6.89,1.113,11.138c20.508-6.159,47.492-0.994,67.564,2.227
			c1.314-1.225-0.261-3.034,0.742-4.455c3.757,2.474,8.373,5.329,14.107,5.568c7.313,0.305,21.451-3.695,25.614-6.683
			c4.646-3.333,5.593-9.713,9.28-12.993c3.778,2.582,7.229,4.82,10.767,7.796c3.282,2.762,6.075,7.347,9.651,8.91
			c2.102,0.918,5.865,1.056,8.909,1.485c11.119,1.57,14.829-1.391,23.389-4.083c4.477-1.409,10.345-2.616,12.993-5.198
			c1.346-1.313,1.813-3.534,2.969-4.826c4.058-4.534,9.606-5.611,14.107-8.539c-4.116-4.346-10.851-5.71-17.076-7.425
			c-12.789-3.521-26.173-6.823-38.237-10.765c-5.894-1.926-13.008-3.343-15.963-8.91c4.425-9.315,19.347-15.904,32.297-10.765
			c-2.981,2.092-6.301,3.846-10.395,4.826c0.537,1.938,1.161,3.789,1.856,5.569c14.033-2.629,21.944-10.75,30.812-18.933
			c2.229-2.057,6.461-6.947,8.909-7.796c4.217-1.46,8.965,0.001,13.736,0c2.906,12.031-1.079,23.91-1.484,34.896
			c-0.548,14.792,6.979,27.109,10.022,39.351c2.488-0.262,4.074,0.381,6.311,0.371c-0.331-3.381-1.625-5.798-2.227-8.909
			c5.293-0.771,10.553-1.574,16.705-1.485c0.647-2.322,1.082-4.858,1.855-7.054c-4.28-2-5.255-8.087-5.567-13.735
			c-0.767-13.831,0.808-33.478,3.341-43.805c10.624-0.23,19.904,0.885,30.069,1.114c0-2.228,0-4.455,0-6.682
			c-22.328,0.926-45.15,0.765-67.192-0.372c9.709-8.853,17.191-19.932,33.782-21.902c-0.664-1.316-0.079-3.881-0.743-5.197
			c-13.297-0.18-23.155,3.078-32.668,6.682c-7.305,12.618-15.407,24.439-25.615,34.154c-9.706-8.95-31.645-2.511-43.434,0
			c-3.243,5.674-6.759,13.029-12.622,14.849c-0.462-1.641,0.096-4.303-1.484-4.826c-4.225,0.231-7.285,1.624-9.282,4.084
			c1.215,3.959,2.271,7.75,3.343,11.879c0.983,3.794,3.114,8.463,2.969,12.251c-0.398,10.397-13.723,19.443-22.272,21.531
			c-26.671,6.51-37.87-29.042-23.389-44.176c1.135-1.186,3.176-1.842,3.713-3.712c-4.213-1.108-8.137-2.505-12.994-2.97
			c-2.984,8.229-9.638,23.078-8.166,34.525c0.55,4.276,5.676,7.057,6.682,10.394c-5.34-2.084-10.534-4.314-15.963-6.311
			c-2.1,1.737-5.611,2.06-6.682,4.827c0.363,2.358,4.079,1.366,4.825,3.34c-1.974,2.241-8.613,1.98-10.765,1.114
			c-5.058-2.033-6.245-13.81-6.683-23.758c-0.616-14.036,0.466-27.064,0.742-37.124c-14.07-1.23-26.237-2.719-35.638-8.539
			c-2.674-1.655-4.174-4.913-7.796-4.826c-1.463,5.622,1.499,9.828,2.599,14.106C425.778,129.196,388.428,112.473,342.245,104.58z
			 M514.496,174.742c0.378,3.164,1.447,8.236,3.711,9.652c-0.09-6.526,2.5-10.371,3.343-15.963c-3.47,1.428-5.658-1.137-7.054-2.97
			C514.756,168.609,514.146,171.82,514.496,174.742z M328.88,235.624c1.83-11.593-10.696-12.41-20.045-10.394
			c3.852,5.904,0.447,17.18,1.855,24.502c-0.49,1.489-2.384,1.575-2.227,3.712c2.404-0.18,7.079,0.549,9.652,0
			c-1.788-2.808-3.524-9.154-1.484-13.365C322.725,240.604,326.996,239.309,328.88,235.624z M687.118,224.858
			c-0.929,5.868-6.222,11.757,0.741,14.849c1.052-4.173,3.755-7.978,2.971-11.878c0.475,0.021,0.515,0.476,1.113,0.371
			c-0.011-1.443,1.357-2.826,0.743-3.712C690.101,225.557,690.473,223.809,687.118,224.858z M703.452,224.858
			c-0.929,5.868-6.222,11.757,0.743,14.849c1.052-4.173,3.753-7.978,2.969-11.878c0.475,0.021,0.514,0.476,1.113,0.371
			c-0.011-1.443,1.357-2.826,0.743-3.712C706.436,225.557,706.808,223.809,703.452,224.858z M374.542,228.571
			c0.944,1.657,1.377,6.591,0.743,9.651c-13.242-6.555-12.069,22.669,0.371,13.736c-0.559,2.415,3.788,1.485,4.827,1.113
			c0.337-1.823-1.557-1.414-1.485-2.97c0.513-8.659-1.181-16.911,0.743-23.387C377.482,226.809,376.987,228.665,374.542,228.571z
			 M552.361,235.995c1.632-8.503-9.224-10.745-18.562-8.909c-0.362,2.343,1.895,2.065,1.856,4.083
			c-1.229,7.022,1.468,16.907-2.228,22.274c3.291-0.279,6.546,0.465,8.909,0c-2.037-3.336-2.594-6-2.228-11.879
			C545.671,240.508,551.399,241.008,552.361,235.995z M611.387,231.169c0.521,0.717,1.764,0.711,1.856,1.855
			c-0.26,7.996,1.711,15.854-2.599,20.789c3.103,0.257,5.064-0.627,8.167-0.37c-3.062-6.986-1.917-18.39-1.856-26.729
			C614.182,227.282,612.563,229.004,611.387,231.169z M405.354,246.39c2.034,6.85,14.087,10.217,20.418,4.456
			c1.101-1.006-0.21-2.74,0-4.084c-3.026,1.11-2.208,3.458-4.827,4.456c-10.235,3.889-13.99-7.798-10.766-15.222
			c2.771-6.377,10.981-4.587,14.85,1.113c0.576-1.506,0.627-4.529-0.371-5.567C412.662,226.797,402.054,235.284,405.354,246.39z
			 M483.313,231.169c4.086,2.543,2.765,10.661,2.6,15.22c-3.83-4.956-9.276-8.296-11.509-14.849c-2.104,0-4.208,0-6.312,0
			c3.807,3.95,3.446,16.804,0.37,21.531c1.757,0.418,6.636,1.015,7.797-0.372c-5.696-0.854-4.018-11.449-3.341-15.592
			c1.377,3.324,3.937,5.469,6.311,7.796c0,0.372,0,0.744,0,1.113c3.862,1.583,3.999,6.892,8.909,7.426
			c-0.195-7.27-1.403-18.376,1.485-22.274C487.372,230.889,485.486,230.638,483.313,231.169z M384.564,235.624
			c0.768,5.204-1.92,11.724,1.115,15.963c2.762,3.859,11.861,1.878,14.478-1.113c1.167-3.782,0.622-9.277,0.742-14.106
			c0.375-1.606,2.216-1.744,2.228-3.714c-2.378,0.443-4.394-0.51-6.683,0.372c3.419,3.09,4.564,16.21,0,18.192
			c-10.131,4.395-8.691-10.044-8.538-15.963c0.847-0.887,2.78-0.687,2.97-2.229c-2.363-0.483-5.309-0.383-8.167-0.372
			C381.745,233.979,384.455,234.201,384.564,235.624z M430.227,237.108c-0.62,0.619-2.711-0.234-2.6,1.114
			c-0.742,2.475,2.815,0.652,2.971,2.229c0.506,2.902-0.91,10.089,0.742,12.993c0.288,0.083,0.732,0.009,0.742,0.37
			c2.896,0.173,4.336-1.108,4.826-3.34c-3.499-0.831-1.865-6.797-2.227-10.766c0.999-0.609,3.031-0.186,3.34-1.485
			c0.352-2.649-2.067-0.481-2.969-1.483c-0.849-0.762,0.106-3.324-0.743-4.086C431.639,232.828,430.431,234.467,430.227,237.108z
			 M440.25,233.025c3.5,4.436,2.436,16.435,0.742,20.047c1.993,0.872,3.613-0.168,5.939,0.372
			c-1.267-4.192-2.403-16.896,0.371-20.791C444.425,233.077,442.606,232.333,440.25,233.025z M594.681,233.025
			c2.927,4.974,1.784,16.682-0.37,20.418c4.911-0.538,9.933,0.583,14.849-0.372c-0.137-1.471,0.34-3.558-0.371-4.456
			c-0.979,2.086-5.426,3.917-8.167,1.857c-0.676-6.623-1.895-12.784,1.114-17.82C599.216,232.61,597.428,233.296,594.681,233.025z
			 M622.523,234.882c1.311,0.439,4.356,2.2,5.198,0.742C626.117,234.969,622.886,230.222,622.523,234.882z M342.616,245.276
			c1.914,11.185,22.729,11.608,21.16-3.712C361.396,229.951,340.361,232.096,342.616,245.276z M550.506,253.072
			c1.49,0.365,3.256,0.456,5.196,0.372c-1.796-2.432-0.545-5.805,1.114-7.795c1.378-0.175,1.698-0.279,3.712-0.372
			c1.148,1.886,4.005,6.095,1.484,8.167c1.857,0,3.713,0,5.568,0c-3.1-5.563-5.304-12.021-7.053-18.934c-0.371,0-0.742,0-1.113,0
			C557.348,241.6,555.292,248.702,550.506,253.072z M648.881,235.995c2.24,1.996,2.662,14.178-0.371,17.448c3.961,0,7.919,0,11.88,0
			c0.688-0.797,0.25-2.72,0.371-4.083c-2.392,0.701-2.396,3.791-6.311,2.969c-1.298-1.959-0.987-5.646-0.743-7.424
			c1.734,0.247,2.622,1.339,4.083,1.857c0-1.608,0-3.217,0-4.826c-1.667,0.188-1.612,2.098-3.712,1.855
			c-0.65-2.334-0.952-5.605,0-7.052c3.142-0.254,4.95,0.67,7.054,2.227c0.216-1.453-0.319-2.155-0.742-2.97
			C657.476,235.482,652.072,235.993,648.881,235.995z M634.403,253.443c4.301-0.29,7.44,0.095,12.251,0
			c0.688-0.797,0.25-2.72,0.37-4.083c-0.947,1.66-5.681,3.748-7.424,1.113c-0.15-5.124-0.585-8.659,0-12.623
			c-0.051-0.743,2.521-1.725,0.743-1.855c-2.574,0.109-2.996,0.109-5.569,0C637.196,240.683,636.863,249.308,634.403,253.443z
			 M450.273,240.82c-4.559,10.681,10.046,17.822,15.962,7.796C469.737,236.083,453.809,232.537,450.273,240.82z M683.405,236.367
			c-0.339,1.887-1.301,3.153-1.484,5.197c0.848,0.408,2.595,1.835,3.341,1.113c-0.535-0.207-0.905-0.579-1.114-1.113
			c0.513,0.016,0.815-0.175,1.114-0.372c0,0.495,0,0.99,0,1.485C689.668,242.5,684.659,238.315,683.405,236.367z M699.74,236.367
			c-0.341,1.887-1.301,3.153-1.485,5.197c0.848,0.408,2.596,1.835,3.342,1.113c-0.535-0.207-0.906-0.579-1.114-1.113
			c0.511,0.016,0.815-0.175,1.114-0.372c0,0.495,0,0.99,0,1.485C706.002,242.5,700.993,238.315,699.74,236.367z M331.107,240.451
			c2.99,2.323,2.317,10.884,0,13.363c2.312-0.039,4.086-0.615,6.683-0.37c-1.497-2.416-2.111-9.881-0.743-12.623
			c0.859,0.504,1.23,1.493,2.97,1.115c1.033-0.667,1.033-3.417,0-4.085C335.532,237.954,334.452,238.374,331.107,240.451z
			 M569.438,240.451c2.989,2.323,2.317,10.884,0,13.363c2.312-0.039,4.088-0.615,6.683-0.37c-1.497-2.416-2.11-9.881-0.742-12.623
			c0.858,0.504,1.229,1.493,2.969,1.115c1.035-0.667,1.035-3.417,0-4.085C573.861,237.954,572.782,238.374,569.438,240.451z
			 M589.855,249.36c0-2.847,0-5.692,0-8.54c-1.049-3.58-8.839-2.323-7.796,1.115c2.338,0.481,2.888-0.826,4.455-1.115
			c2.325,5.975-9.218,6.209-4.084,12.623c3.963-1.217,7.538,1.58,9.281-1.857C591.9,250.037,589.768,250.809,589.855,249.36z
			 M629.206,238.594c-9.947-3.045-10.021,11.981-5.197,14.85c3.993,0.363,9.14,0.036,7.795-3.712
			c-0.981-0.229-3.881,0.812-6.311,0.37c-1.646-0.783-1.968-4.605-1.113-6.683c2.996,0.275,4.842-0.602,7.796-0.372
			C632.04,240.71,630.54,239.736,629.206,238.594z M681.179,243.791c0.846,0.104,1.395-0.089,1.484-0.744
			c-0.529-0.087-0.626-0.609-1.113-0.742C681.433,242.808,681.021,243.015,681.179,243.791z M697.513,243.791
			c0.846,0.104,1.395-0.089,1.484-0.744c-0.529-0.087-0.626-0.609-1.113-0.742C697.768,242.808,697.355,243.015,697.513,243.791z
			 M680.065,248.988c-0.14,1.222-1.975,0.749-1.857,2.229c0.121,0.869,1.619,0.359,1.857,1.112c-0.007,0.613-1.03,0.209-1.115,0.743
			c1.541,0.563,2.057,2.152,2.6,3.712c1.374-2.836,3.438-6.952,3.341-10.022c-1.028,0.105-2.59,1.589-3.341,0.742
			c1.53-0.574,2.53-1.676,2.97-3.34c-1.114,0-2.228,0-3.341,0c-0.986,0.861,0.984,0.994,0,1.855
			C679.691,244.497,678.131,250.583,680.065,248.988z M696.399,248.988c-0.14,1.222-1.975,0.749-1.857,2.229
			c0.122,0.869,1.62,0.359,1.857,1.112c-0.007,0.613-1.03,0.209-1.113,0.743c1.539,0.563,2.054,2.152,2.598,3.712
			c1.374-2.836,3.439-6.952,3.342-10.022c-1.028,0.105-2.591,1.589-3.342,0.742c1.529-0.574,2.531-1.676,2.97-3.34
			c-1.113,0-2.228,0-3.341,0c-0.986,0.861,0.985,0.994,0,1.855C696.024,244.497,694.466,250.583,696.399,248.988z M674.125,263.838
			c1.867-0.311,3.139-0.406,5.568-0.372c2.91-4.28,0.085-8.148-1.856-10.766C676.45,256.294,674.501,260.354,674.125,263.838z
			 M690.459,263.838c1.866-0.311,3.139-0.406,5.568-0.372c2.91-4.28,0.085-8.148-1.856-10.766
			C692.785,256.294,690.837,260.354,690.459,263.838z M338.532,257.525c-0.401,4.491-5.4,6.143-5.197,10.024
			c3.899,0.188,5.728-1.696,8.167-2.97c5.728,0.088,9.938,1.692,12.992,4.456c1.436,0.198,1.813-0.663,3.341-0.372
			c1.546,5.481,6.731,3.16,12.251,2.97c3.253-2.915,1.66-10.396,0-13.736c-2.927-0.538-4.585-2.345-6.683-3.712
			c-4.039,5.158-17.903,4.947-21.16-0.742C341.893,255.69,340.949,257.345,338.532,257.525z M403.126,253.443
			c-1.697,2.014-3.859,3.564-7.053,4.082c-0.581,3.821-1.594,6.102,0,9.653c2.937,0.901,5.769,1.903,9.281,2.227
			c2.368-2.018-0.075-6.223,0-8.166c0.427-1.058,1.751-1.219,2.227-2.229C408.208,254.795,404.896,254.26,403.126,253.443z
			 M308.463,270.148c1.363-0.12,3.287,0.316,4.083-0.372C313.136,265.906,306.176,265.954,308.463,270.148z M309.576,277.944
			c-6.634,3.334-16.694,8.583-21.161,12.621c-1.104,0.27-4.067,2.183-2.599,2.601c3.843-0.232,7.651,1.8,11.138,1.113
			c2.892-0.571,3.498-2.988,5.568-4.455c8.369,0.695,10.112-5.233,13.364-9.653C315,277.996,311.101,277.178,309.576,277.944z
			 M236.073,293.166c-2.485-2.195-7.962-7.154-8.91-1.485c3.833,2.354,4.909,7.464,9.281,9.279c1.942-0.547,2.906-2.03,4.826-0.742
			C240.736,298.513,238.517,295.323,236.073,293.166z M219.367,292.422c0.969,2.063,0.932,2.393,0.372,4.825
			c1.401,0.164,1.742-0.73,2.599-1.113c0.634,0.603,1.351,1.124,2.599,1.113c0.079-0.416,0.412-0.577,0.742-0.742
			C224.375,293.981,222.65,289.773,219.367,292.422z M218.625,301.703c-0.502-0.365-0.741-0.992-1.114-1.486
			c-1.479,0.748-2.966,1.488-2.969,3.713c1.669-0.287,2.777,1.484,4.083,2.598c-1.508,1.27-2.076,0.42-3.342,0.742
			c0.273,1.107,3.227,1.457,4.083,0.744c-0.294-0.041-1.125-1.229-0.371-1.115c1.471,0.385,1.373,2.342,2.228,3.342
			c2.604-1.65,3.814,0.654,5.939,1.484c3.07-1.742,11.388-7.721,3.341-9.65c-0.576-2.395-2.06-3.879-4.455-4.455
			C224.935,300.939,220.75,299.168,218.625,301.703z M198.208,306.156c2.972,0.391,6.376-0.639,9.28,0.371
			c1.776,0.619,2.753,3.168,4.827,2.971c0.268-1.879-0.409-2.809-1.114-3.711c-4.946,0.691-8.246-3.732-14.106-1.113
			c-3.691-2.25-7.155-4.727-11.509-6.313C188.697,301.691,192.391,305.396,198.208,306.156z M308.463,306.156
			c2.755,1.025,6.741,4.133,10.394,1.857C318.426,302.295,311.642,304.387,308.463,306.156z M445.076,307.641
			c0.039,2.684,2.33,3.113,5.197,2.971C450.203,307.957,447.131,306.055,445.076,307.641z M214.17,309.869
			c1.301-0.57,1.394-2.754-0.742-2.6C213.08,308.209,213.156,309.377,214.17,309.869z M109.112,328.43
			c5.149-0.789,13.488,1.611,13.735-4.082C119.169,326.607,113.441,326.82,109.112,328.43z M177.048,327.689
			c-2.452,2.814-7.017,3.941-10.024,5.568c-10.277,5.555-21.192,11.91-30.44,18.563c8.612,0.93,12.823-4.184,19.304-7.426
			c3.449-1.727,7.072-2.98,9.652-4.457c1.54-0.877,2.575-2.479,4.083-3.34c3.29-1.877,7.853-2.6,10.024-6.311
			C179.044,329.156,178.502,327.965,177.048,327.689z"/>
		<path fill-rule="evenodd" clip-rule="evenodd" d="M604.334,183.652c16.299,4.859,37.989,4.329,51.972,11.507
			c-2.413,8.365-10.442,13.827-20.046,14.849c-12.97,1.381-22.951-5.142-28.586-13.364c-2.743-0.021-4.962,0.482-6.681,1.484
			C601.688,194.547,607.494,188.85,604.334,183.652z"/>
		<path fill-rule="evenodd" clip-rule="evenodd" fill="#FFFFFF" d="M681.179,246.018c0.984-0.861-0.986-0.994,0-1.855
			c1.113,0,2.227,0,3.341,0c-0.439,1.664-1.439,2.767-2.97,3.34c0.751,0.847,2.313-0.636,3.341-0.742
			c0.098,3.07-1.967,7.187-3.341,10.022c-0.543-1.56-1.059-3.149-2.6-3.712c0.085-0.534,1.108-0.13,1.115-0.743
			c-0.238-0.752-1.736-0.243-1.857-1.112c-0.117-1.48,1.718-1.006,1.857-2.229C678.131,250.583,679.691,244.497,681.179,246.018z"/>
		<path fill-rule="evenodd" clip-rule="evenodd" fill="#FFFFFF" d="M697.513,246.018c0.985-0.861-0.986-0.994,0-1.855
			c1.113,0,2.228,0,3.341,0c-0.438,1.664-1.44,2.767-2.97,3.34c0.751,0.847,2.313-0.636,3.342-0.742
			c0.098,3.07-1.968,7.187-3.342,10.022c-0.544-1.56-1.059-3.149-2.598-3.712c0.083-0.534,1.106-0.13,1.113-0.743
			c-0.237-0.752-1.735-0.243-1.857-1.112c-0.117-1.48,1.718-1.006,1.857-2.229C694.466,250.583,696.024,244.497,697.513,246.018z"/>
		<path fill-rule="evenodd" clip-rule="evenodd" d="M471.062,302.816c1.986,0.244,3.445,4.223,5.197,5.939
			C474.209,308.574,472.977,304.369,471.062,302.816z"/>
		<path fill-rule="evenodd" clip-rule="evenodd" d="M152.175,306.898C150.711,309.865,148.292,309.621,152.175,306.898
			L152.175,306.898z"/>
		<path fill-rule="evenodd" clip-rule="evenodd" d="M185.957,341.795c0.435,0.703-1.424,2.275-1.857,3.342
			C183.467,344.236,185.397,342.734,185.957,341.795z"/>
		<path fill-rule="evenodd" clip-rule="evenodd" fill="#FFFFFF" d="M692.687,224.487c0.614,0.886-0.754,2.269-0.743,3.712
			c-0.599,0.105-0.639-0.35-1.113-0.371c0.784,3.901-1.919,7.706-2.971,11.878c-6.963-3.092-1.67-8.98-0.741-14.849
			C690.473,223.809,690.101,225.557,692.687,224.487z"/>
		<path fill-rule="evenodd" clip-rule="evenodd" fill="#FFFFFF" d="M709.021,224.487c0.614,0.886-0.754,2.269-0.743,3.712
			c-0.6,0.105-0.639-0.35-1.113-0.371c0.784,3.901-1.917,7.706-2.969,11.878c-6.965-3.092-1.672-8.98-0.743-14.849
			C706.808,223.809,706.436,225.557,709.021,224.487z"/>
		<path fill-rule="evenodd" clip-rule="evenodd" d="M645.54,287.595c1.656,0.572,4.221,0.236,4.826,1.857
			c1.303,4.89-5.981,5.238-6.683,1.857c-8.845,8.164-26.796-2.421-25.243-13.736c0.81-5.898,7.968-11.803,14.106-11.136
			C641.23,267.378,648.501,277.821,645.54,287.595z"/>
	</g>
</g>
</svg>
